<svg width="16" height="19" viewBox="0 0 16 19" fill="none" xmlns="http://www.w3.org/2000/svg">
<path d="M5.20312 10.375H3.79688C3.55078 10.375 3.375 10.1992 3.375 9.95312V8.54688C3.375 8.33594 3.55078 8.125 3.79688 8.125H5.20312C5.41406 8.125 5.625 8.33594 5.625 8.54688V9.95312C5.625 10.1992 5.41406 10.375 5.20312 10.375ZM9 9.95312C9 10.1992 8.78906 10.375 8.57812 10.375H7.17188C6.92578 10.375 6.75 10.1992 6.75 9.95312V8.54688C6.75 8.33594 6.92578 8.125 7.17188 8.125H8.57812C8.78906 8.125 9 8.33594 9 8.54688V9.95312ZM12.375 9.95312C12.375 10.1992 12.1641 10.375 11.9531 10.375H10.5469C10.3008 10.375 10.125 10.1992 10.125 9.95312V8.54688C10.125 8.33594 10.3008 8.125 10.5469 8.125H11.9531C12.1641 8.125 12.375 8.33594 12.375 8.54688V9.95312ZM9 13.3281C9 13.5742 8.78906 13.75 8.57812 13.75H7.17188C6.92578 13.75 6.75 13.5742 6.75 13.3281V11.9219C6.75 11.7109 6.92578 11.5 7.17188 11.5H8.57812C8.78906 11.5 9 11.7109 9 11.9219V13.3281ZM5.625 13.3281C5.625 13.5742 5.41406 13.75 5.20312 13.75H3.79688C3.55078 13.75 3.375 13.5742 3.375 13.3281V11.9219C3.375 11.7109 3.55078 11.5 3.79688 11.5H5.20312C5.41406 11.5 5.625 11.7109 5.625 11.9219V13.3281ZM12.375 13.3281C12.375 13.5742 12.1641 13.75 11.9531 13.75H10.5469C10.3008 13.75 10.125 13.5742 10.125 13.3281V11.9219C10.125 11.7109 10.3008 11.5 10.5469 11.5H11.9531C12.1641 11.5 12.375 11.7109 12.375 11.9219V13.3281ZM15.75 4.1875V16.5625C15.75 17.5117 14.9766 18.25 14.0625 18.25H1.6875C0.738281 18.25 0 17.5117 0 16.5625V4.1875C0 3.27344 0.738281 2.5 1.6875 2.5H3.375V0.671875C3.375 0.460938 3.55078 0.25 3.79688 0.25H5.20312C5.41406 0.25 5.625 0.460938 5.625 0.671875V2.5H10.125V0.671875C10.125 0.460938 10.3008 0.25 10.5469 0.25H11.9531C12.1641 0.25 12.375 0.460938 12.375 0.671875V2.5H14.0625C14.9766 2.5 15.75 3.27344 15.75 4.1875ZM14.0625 16.3516V5.875H1.6875V16.3516C1.6875 16.4922 1.75781 16.5625 1.89844 16.5625H13.8516C13.957 16.5625 14.0625 16.4922 14.0625 16.3516Z" fill="white" fill-opacity="0.5"/>
</svg>
