<svg width="44" height="44" viewBox="0 0 44 44" fill="none" xmlns="http://www.w3.org/2000/svg">
<path fill-rule="evenodd" clip-rule="evenodd" d="M22 3.66699C11.8748 3.66699 3.66667 11.8751 3.66667 22.0003C3.66667 32.1256 11.8748 40.3337 22 40.3337C32.1252 40.3337 40.3333 32.1256 40.3333 22.0003C40.3333 11.8751 32.1252 3.66699 22 3.66699ZM22 36.667C13.8998 36.667 7.33333 30.1005 7.33333 22.0003C7.33333 13.9001 13.8998 7.33366 22 7.33366C30.1002 7.33366 36.6667 13.9001 36.6667 22.0003C36.6667 30.1005 30.1002 36.667 22 36.667ZM24.3757 17.0213C25.0946 16.3083 26.2554 16.3131 26.9684 17.0319L26.979 17.0426C27.692 17.7615 27.6873 18.9223 26.9684 19.6353L24.585 22.0003L26.9684 24.3653L26.979 24.3759C27.692 25.0948 27.6873 26.2556 26.9684 26.9686L26.9578 26.9792C26.2389 27.6923 25.0781 27.6875 24.3651 26.9686L22.0001 24.5853L19.6351 26.9686L19.6244 26.9792C18.9055 27.6923 17.7447 27.6875 17.0317 26.9686L17.0211 26.958C16.3081 26.2391 16.3128 25.0783 17.0317 24.3653L19.4151 22.0003L17.0317 19.6353C16.3128 18.9164 16.3128 17.7508 17.0317 17.0319C17.7506 16.3131 18.9162 16.3131 19.6351 17.0319L22.0001 19.4153L24.3651 17.0319L24.3757 17.0213Z" fill="#1E90FF"/>
</svg>
