<?xml version="1.0" encoding="UTF-8"?>
<svg id="Layer_1" data-name="Layer 1" xmlns="http://www.w3.org/2000/svg" viewBox="0 0 276 64.08">
  <defs>
    <style>
      .cls-1 {
        fill: #eff6fe;
      }

      .cls-2 {
        fill: #fefefe;
      }
    </style>
  </defs>
  <g>
    <path class="cls-1" d="M274.33.18v63.84H-1.67V.18h276ZM74.36.73c-23.13,2.03-34.97,28.39-23.43,47.82,14.99,25.22,55.96,17.26,58.75-12.87C111.67,14.22,95.86-1.16,74.36.73ZM117.37,1.61v61.45h17.28v-22.71l1.64.04,12.04,22.68h19.44l-13.67-23.81c-.1-.5.08-.27.32-.37,21.11-8.13,15.19-35.85-6.24-37.25,0,0-30.81-.03-30.81-.03ZM174.97,1.61v61.45c9.89-.3,20.02.4,29.89,0,4.77-.19,9.67-.68,13.86-3.16,11.47-6.79,9.36-25.44-3.91-28.41l2.88-1.31c13.8-8.96,6.25-28.59-9.73-28.57h-33,0Z"/>
    <rect class="cls-2" x="-1.67" y=".06" width="276" height=".24"/>
    <path class="cls-1" d="M192.28,49.07v-11h11.64c.1,0,1.64.63,1.88.76,3.73,1.99,3.53,8.42-.74,9.69-.63.19-2.48.55-3.05.55h-9.73Z"/>
    <path class="cls-1" d="M192.28,25.87v-10.76h9.48c.26,0,1.75.4,2.11.53,4.34,1.55,4.35,8.11.17,9.62-.48.17-2.35.6-2.75.6h-9.01Z"/>
    <path class="cls-1" d="M77.27,16.38c11.99-.68,17,10.36,14.38,20.78-3.42,13.62-23.11,13.77-26.69.19-2.49-9.44,1.37-20.34,12.31-20.97Z"/>
    <path class="cls-1" d="M134.68,28.5v-12.67h9.96c.32,0,2.22.76,2.6,1,3.92,2.46,3.44,9.91-1.42,11.19-.66.17-2.51.49-3.11.49h-8.04,0Z"/>
  </g>
  <rect class="cls-1" x="-5.58" y="-6.82" width="283.57" height="7.18"/>
  <rect class="cls-1" x="259.25" y="-15.97" width="20.54" height="100.46"/>
  <rect class="cls-1" x="-4.69" y="63.6" width="277.56" height="7.18"/>
</svg>